<mxfile host="app.diagrams.net" modified="2022-02-19T03:01:29.150Z" agent="5.0 (X11; Linux x86_64) AppleWebKit/537.36 (KHTML, like Gecko) Chrome/97.0.4692.71 Safari/537.36" etag="I8KtgiTsXLJ0xMlPaBhh" version="16.5.6" type="github">
  <diagram id="t0kSMOGVpJKCZHihoRKv" name="Page-1">
    <mxGraphModel dx="1422" dy="835" grid="1" gridSize="10" guides="1" tooltips="1" connect="1" arrows="1" fold="1" page="1" pageScale="1" pageWidth="850" pageHeight="1100" math="0" shadow="0">
      <root>
        <mxCell id="0" />
        <mxCell id="1" parent="0" />
        <mxCell id="3HVSBPMJFV33EyscSQiM-2" value="Region" style="points=[[0,0],[0.25,0],[0.5,0],[0.75,0],[1,0],[1,0.25],[1,0.5],[1,0.75],[1,1],[0.75,1],[0.5,1],[0.25,1],[0,1],[0,0.75],[0,0.5],[0,0.25]];outlineConnect=0;gradientColor=none;html=1;whiteSpace=wrap;fontSize=12;fontStyle=0;container=1;pointerEvents=0;collapsible=0;recursiveResize=0;shape=mxgraph.aws4.group;grIcon=mxgraph.aws4.group_region;strokeColor=#147EBA;fillColor=none;verticalAlign=top;align=left;spacingLeft=30;fontColor=#147EBA;dashed=1;" vertex="1" parent="1">
          <mxGeometry x="90" y="120" width="980" height="730" as="geometry" />
        </mxCell>
        <mxCell id="3HVSBPMJFV33EyscSQiM-1" value="VPC&lt;br&gt;10.0.0.0/16" style="sketch=0;outlineConnect=0;gradientColor=none;html=1;whiteSpace=wrap;fontSize=12;fontStyle=0;shape=mxgraph.aws4.group;grIcon=mxgraph.aws4.group_vpc;strokeColor=#879196;fillColor=none;verticalAlign=top;align=left;spacingLeft=30;fontColor=#879196;dashed=0;" vertex="1" parent="3HVSBPMJFV33EyscSQiM-2">
          <mxGeometry x="50" y="30" width="890" height="630" as="geometry" />
        </mxCell>
        <mxCell id="3HVSBPMJFV33EyscSQiM-4" value="Availability zone" style="sketch=0;outlineConnect=0;gradientColor=none;html=1;whiteSpace=wrap;fontSize=12;fontStyle=0;shape=mxgraph.aws4.group;grIcon=mxgraph.aws4.group_availability_zone;strokeColor=#545B64;fillColor=none;verticalAlign=top;align=left;spacingLeft=30;fontColor=#545B64;dashed=1;" vertex="1" parent="3HVSBPMJFV33EyscSQiM-2">
          <mxGeometry y="80" width="980" height="220" as="geometry" />
        </mxCell>
        <mxCell id="3HVSBPMJFV33EyscSQiM-3" value="Availability zone" style="sketch=0;outlineConnect=0;gradientColor=none;html=1;whiteSpace=wrap;fontSize=12;fontStyle=0;shape=mxgraph.aws4.group;grIcon=mxgraph.aws4.group_availability_zone;strokeColor=#545B64;fillColor=none;verticalAlign=top;align=left;spacingLeft=30;fontColor=#545B64;dashed=1;" vertex="1" parent="3HVSBPMJFV33EyscSQiM-2">
          <mxGeometry y="340" width="980" height="280" as="geometry" />
        </mxCell>
        <mxCell id="3HVSBPMJFV33EyscSQiM-7" value="Subnet" style="sketch=0;outlineConnect=0;gradientColor=none;html=1;whiteSpace=wrap;fontSize=12;fontStyle=0;shape=mxgraph.aws4.group;grIcon=mxgraph.aws4.group_subnet;strokeColor=#879196;fillColor=none;verticalAlign=top;align=left;spacingLeft=30;fontColor=#879196;dashed=0;" vertex="1" parent="3HVSBPMJFV33EyscSQiM-2">
          <mxGeometry x="80" y="125" width="220" height="130" as="geometry" />
        </mxCell>
        <mxCell id="3HVSBPMJFV33EyscSQiM-13" value="Subnet" style="sketch=0;outlineConnect=0;gradientColor=none;html=1;whiteSpace=wrap;fontSize=12;fontStyle=0;shape=mxgraph.aws4.group;grIcon=mxgraph.aws4.group_subnet;strokeColor=#879196;fillColor=none;verticalAlign=top;align=left;spacingLeft=30;fontColor=#879196;dashed=0;" vertex="1" parent="3HVSBPMJFV33EyscSQiM-2">
          <mxGeometry x="360" y="125" width="220" height="130" as="geometry" />
        </mxCell>
        <mxCell id="3HVSBPMJFV33EyscSQiM-14" value="Subnet" style="sketch=0;outlineConnect=0;gradientColor=none;html=1;whiteSpace=wrap;fontSize=12;fontStyle=0;shape=mxgraph.aws4.group;grIcon=mxgraph.aws4.group_subnet;strokeColor=#879196;fillColor=none;verticalAlign=top;align=left;spacingLeft=30;fontColor=#879196;dashed=0;" vertex="1" parent="3HVSBPMJFV33EyscSQiM-2">
          <mxGeometry x="80" y="400" width="220" height="130" as="geometry" />
        </mxCell>
        <mxCell id="3HVSBPMJFV33EyscSQiM-15" value="Subnet" style="sketch=0;outlineConnect=0;gradientColor=none;html=1;whiteSpace=wrap;fontSize=12;fontStyle=0;shape=mxgraph.aws4.group;grIcon=mxgraph.aws4.group_subnet;strokeColor=#879196;fillColor=none;verticalAlign=top;align=left;spacingLeft=30;fontColor=#879196;dashed=0;" vertex="1" parent="3HVSBPMJFV33EyscSQiM-2">
          <mxGeometry x="360" y="400" width="220" height="130" as="geometry" />
        </mxCell>
      </root>
    </mxGraphModel>
  </diagram>
</mxfile>
